<svg viewBox="0 0 291 31" xmlns="http://www.w3.org/2000/svg"><style>.college{fill:#e4a01b}.st-olaf{fill:#000}</style><path class="college" d="M172.751 4.721c4.08 0 6.972 1.864 6.972 1.864l-.868 1.96s-2.634-2.025-6.329-2.025c-5.976 0-8.803 4.853-8.803 9.255 0 4.946 3.566 9.348 8.932 9.348 3.598 0 6.426-2.216 6.426-2.216l.867 1.607s-3.117 2.409-7.519 2.409c-6.458 0-11.02-4.723-11.02-11.02 0-6.17 4.402-11.182 11.342-11.182M192.397 4.721c6.49 0 10.828 4.723 10.828 10.7 0 6.072-4.53 11.502-11.117 11.502-6.426 0-10.892-5.076-10.892-11.052 0-5.72 4.113-11.15 11.181-11.15m-.193 20.37c5.495 0 8.707-4.819 8.707-9.414 0-4.625-3.148-9.123-8.707-9.123-5.558 0-8.707 4.626-8.707 9.091 0 4.498 3.15 9.447 8.707 9.447M206.09 5.107h2.12V24.77h10.474v1.767H206.09V5.107zM221.572 5.107h2.12V24.77h10.474v1.767h-12.594V5.107zM236.728 5.107h12.305v1.767h-10.185v7.807h8.065v1.767h-8.065v8.322h10.057v1.767h-12.177V5.107zM262.25 4.721c4.208 0 7.067 1.606 7.067 1.606l-.867 1.992s-2.635-1.799-6.362-1.799c-5.976 0-8.9 4.691-8.9 9.383 0 5.14 3.503 9.22 9.607 9.22 2.185 0 4.306-.642 4.306-.642v-6.908h-4.69v-1.768h6.81v10.122s-3.727.995-6.843.995c-6.266 0-11.47-4.047-11.47-10.827 0-5.975 4.048-11.373 11.341-11.373M274.026 5.107h12.305v1.767h-10.185v7.807h8.065v1.767h-8.065v8.322h10.058v1.767h-12.178V5.107z"/><path d="M14.32 29.646s11.513-6.71 12.326-19.03l-.17-.032c-8.79-1.482-16.344 3.524-20.537 10.852 3.604 5.309 8.38 8.21 8.38 8.21" fill="#e4a01b"/><path d="M26.693 8.655l-.001-5.937C26.516 2.653 21.72.93 14.39.93 6.917.93 2 2.718 2 2.718v6.524c0 1.598.189 3.113.52 4.541 6.126-4.69 14.603-6.938 24.173-5.128"/><path class="st-olaf" d="M35.393 20.413H36.5c-.26 3.981 1.934 5.336 4.717 5.336 2.114 0 4.131-1.386 4.131-3.89 0-5.66-10.182-5.563-10.182-12.166 0-3.22 2.4-5.562 7.214-5.562 2.31 0 4.662.658 5.378.756l-1.026 5.646h-1.106c.325-2.44-.864-4.896-3.596-4.896-2.179 0-4.033.884-4.033 3.015 0 5.692 10.181 5.14 10.181 12.133 0 3.904-3.35 6.2-7.254 6.2-2.83 0-6.278-.976-6.278-3.35 0-.488.13-1.27.748-3.222M55.25 25.678c1.434-.16 2.295-.925 2.295-2.073V6.579h-2.732c-2.2 0-3.157.67-4.369 3.954H49.36l.989-5.388s.83.19 2.137.19h14.072c1.308 0 2.296-.19 2.296-.19l-.987 5.388H66.78c.16-3.284-.892-3.954-3.379-3.954H60.67l-.317.319v16.707c0 .957-.16 1.722-.16 1.722l3.188.287-.128.893-8.003.192v-1.021zM87.94 3.747c7.03 0 11.502 4.742 11.502 10.829 0 6.423-4.91 12.409-12.342 12.409-6.894 0-11.367-5.212-11.367-11.333 0-6.053 4.338-11.905 12.208-11.905m.566 21.854c5.267-.378 7.939-5.897 7.588-10.794-.361-5.032-3.892-10.072-9.46-9.673-5.233.375-7.946 5.324-7.593 10.255.359 4.998 3.93 10.609 9.465 10.212M100.847 25.651c1.464-.162 2.18-.846 2.18-2.016V8.086c0-1.562 0-1.887-2.408-2.375v-.813h2.537c2.928 0 3.643-.13 3.643-.13l.163.13s-1.073 1.236-1.073 3.936v14.703c0 .976-.163 1.79-.163 1.79h4.847c2.797 0 3.318-1.009 4.944-4.685h1.106l-1.333 5.953h-9.889c-1.626 0-4.554.097-4.554.097v-1.04zM116.665 25.651c1.366-.13 1.919-.813 2.179-1.464l7.71-19.192 1.333-.292 7.222 18.476c.878 2.212 1.464 2.375 2.472 2.537l-.13.88h-1.4c-1.203 0-4.943.096-4.943.096v-1.106c.91-.032 1.724-.293 1.366-1.268l-1.985-5.205h-7.774l-.423.325-2.244 5.855 2.765.391-.13.911h-6.018v-.944zm9.856-17.305l-3.61 9.401h7.058l-2.797-7.417a19.567 19.567 0 0 1-.651-1.984zM138.974 25.651c1.464-.162 2.342-.943 2.342-2.114V8.087c0-1.563-.162-1.888-2.667-2.376v-.813h13.076c1.334 0 2.342-.13 2.342-.13L153.06 10.2h-1.106c.163-3.35-.91-4.033-3.513-4.033h-3.936l-.325.325v8.62h5.79l.26-1.854 1.204-.196v5.725h-1.529V16.38h-5.4l-.325.326v6.831c0 .976-.163 1.756-.163 1.756l3.578.293-.13.911-8.49.195v-1.04zM67.534 23.62c1.018 0 1.666.687 1.666 1.568 0 .93-.712 1.797-1.788 1.797-.998 0-1.646-.755-1.646-1.64 0-.878.63-1.725 1.768-1.725"/></svg>