<svg xmlns="http://www.w3.org/2000/svg" height="265.813" width="1156.76"><g fill="#ffffff"><path d="M132.777 63.876h.27c.828 0 .988-.813 1.105-1.443l.784-60.661c0-.968-.939-1.777-2.037-1.777-1.085 0-2.01.809-2.01 1.777l.777 60.736c.061.412.221 1.368 1.11 1.368M132.998 201.932h-.27c-.828 0-.983.815-1.1 1.444l-.74 60.672c0 .958.931 1.772 2.037 1.765 1.086 0 2.011-.807 2.011-1.77l-.827-60.735c-.062-.42-.216-1.376-1.11-1.376M108.818 68.085l.252-.086c.777-.284.654-1.099.537-1.735L89.282 8.992c-.327-.901-1.494-1.352-2.53-.981-1.019.369-1.61 1.444-1.277 2.357l21.824 56.804c.204.357.684 1.216 1.519.913M156.964 197.737l-.253.094c-.778.274-.648 1.104-.536 1.732l20.361 57.26c.335.902 1.5 1.352 2.53.974 1.025-.362 1.617-1.443 1.283-2.348l-21.868-56.793c-.202-.37-.684-1.216-1.517-.919M87.764 80.117l.209-.172c.636-.525.229-1.248-.104-1.802L48.897 31.168c-.636-.741-1.877-.772-2.727-.068-.834.685-1.012 1.895-.383 2.628l40.23 46.03c.321.285 1.062.92 1.747.36M178.023 185.723l-.21.173c-.634.524-.222 1.252.106 1.808l39.009 46.944c.63.739 1.875.764 2.721.068.832-.687 1.018-1.901.388-2.643l-40.268-45.997c-.321-.279-1.061-.915-1.746-.353M72.16 98.512l.135-.236c.413-.703-.222-1.253-.722-1.659L18.637 65.611c-.851-.482-2.03-.092-2.585.852-.543.918-.29 2.122.555 2.604l53.787 29.696c.401.161 1.321.508 1.765-.251M193.641 167.343l-.136.233c-.413.697.222 1.245.722 1.661l52.96 30.967c.852.476 2.03.088 2.58-.857.542-.92.289-2.123-.556-2.604l-53.806-29.661c-.401-.154-1.32-.5-1.764.26M63.878 121.05l.05-.265c.141-.801-.642-1.098-1.258-1.32L2.157 108.168c-.963-.173-1.932.604-2.124 1.667-.19 1.061.464 2.096 1.426 2.264l60.852 9.785c.426.017 1.42.03 1.567-.833M201.933 144.8l-.049.266c-.141.802.641 1.098 1.259 1.322l60.518 11.252c.963.175 1.938-.603 2.135-1.664.18-1.061-.468-2.1-1.437-2.264l-60.859-9.744c-.425-.012-1.419-.024-1.567.832M63.928 145.023l-.044-.264c-.141-.803-.993-.815-1.648-.815L1.46 153.712c-.962.164-1.616 1.216-1.42 2.29.186 1.047 1.161 1.813 2.124 1.638l60.58-11.308c.401-.13 1.332-.45 1.185-1.31M201.903 120.828l.049.267c.141.801.98.813 1.635.813l60.778-9.81c.963-.167 1.611-1.215 1.419-2.289-.185-1.049-1.16-1.801-2.123-1.641l-60.58 11.347c-.408.141-1.338.456-1.178 1.313M72.295 167.532l-.136-.228c-.413-.703-1.21-.444-1.827-.222l-53.73 29.66c-.84.482-1.087 1.691-.531 2.629.543.926 1.715 1.314 2.566.826l53.004-31.029c.333-.259 1.099-.876.654-1.636M193.548 98.313l.143.235c.406.704 1.202.437 1.813.215l53.707-29.696c.852-.476 1.098-1.686.544-2.63-.544-.93-1.723-1.313-2.568-.826l-52.979 31.074c-.34.259-1.104.87-.66 1.628M87.973 185.864l-.21-.167c-.629-.524-1.288 0-1.783.41L45.787 232.08c-.63.735-.444 1.95.407 2.648.826.69 2.067.659 2.703-.08l39.026-47.03c.218-.353.735-1.186.05-1.754M177.881 79.97l.211.171c.628.524 1.283 0 1.788-.406l40.157-46.007c.63-.733.432-1.95-.408-2.653-.832-.684-2.072-.648-2.701.093l-38.997 47.048c-.223.357-.735 1.19-.05 1.755M109.07 197.81l-.247-.091c-.778-.28-1.215.436-1.543.993l-21.805 56.737c-.334.905.258 1.986 1.295 2.357 1.025.369 2.178-.086 2.512-.99l20.355-57.34c.08-.406.272-1.364-.567-1.665M156.79 68.012l.249.085c.777.284 1.221-.425 1.541-.981l21.764-56.76c.339-.901-.26-1.981-1.303-2.345-1.012-.371-2.17.074-2.505.986l-20.312 57.355c-.075.4-.27 1.363.567 1.66M63.335 133.205v-.257c0-.816-.703-.98-1.258-1.087l-52.862-.765c-.833 0-1.548.921-1.548 2.007.013 1.066.715 1.985 1.554 1.985l52.924-.788c.351-.068 1.19-.21 1.19-1.095M203.056 133.01v.27c0 .815.716.97 1.26 1.086l52.865.729c.828 0 1.544-.926 1.544-2.01 0-1.074-.716-1.989-1.556-1.989l-52.916.828c-.364.061-1.197.208-1.197 1.086M67.593 156.741l-.092-.254c-.278-.764-1.006-.671-1.562-.597l-49.943 17.104c-.782.277-1.128 1.38-.752 2.405.376 1.008 1.358 1.622 2.147 1.34l49.462-18.573c.308-.18 1.049-.605.74-1.425M198.812 109.481l.099.254c.282.765.998.678 1.566.593l49.918-17.13c.789-.282 1.136-1.389.753-2.406-.37-1.005-1.356-1.623-2.147-1.345l-49.437 18.61c-.321.178-1.05.604-.752 1.424M79.76 177.417l-.173-.209c-.53-.619-1.178-.29-1.677-.03L36.926 210.07c-.647.524-.586 1.677.124 2.51.69.823 1.839 1.075 2.48.544l40.02-34.116c.242-.277.778-.926.21-1.592M186.655 88.799l.18.204c.53.624 1.178.296 1.672.03l40.965-32.918c.648-.53.585-1.679-.13-2.512-.691-.82-1.838-1.074-2.48-.543l-39.997 34.147c-.234.277-.777.92-.21 1.592M98.37 192.745l-.234-.13c-.716-.414-1.21.117-1.592.532L69.456 237.86c-.42.711.037 1.784.988 2.327.943.532 2.098.384 2.523-.339l25.761-45.537c.13-.34.414-1.128-.358-1.567M168.057 73.453l.235.135c.716.408 1.21-.117 1.592-.536l27.064-44.728c.413-.716-.044-1.777-1-2.32-.937-.53-2.099-.39-2.517.333l-25.736 45.555c-.131.34-.414 1.128.362 1.561M121.189 200.883l-.272-.043c-.814-.15-1.098.517-1.309 1.036l-9.933 51.147c-.148.81.647 1.653 1.74 1.843 1.072.187 2.11-.34 2.252-1.153l8.398-51.477c0-.36 0-1.205-.876-1.353M145.247 65.308l.265.05c.815.135 1.097-.518 1.308-1.037l9.896-51.158c.15-.81-.641-1.654-1.733-1.846-1.074-.185-2.11.347-2.252 1.16l-8.367 51.48c.007.364.012 1.203.883 1.351M145.45 200.84l-.27.043c-.816.148-.853.864-.872 1.42l8.423 51.41c.148.808 1.185 1.34 2.27 1.148 1.074-.185 1.871-1.036 1.728-1.85l-9.984-51.196c-.129-.34-.418-1.125-1.294-.975M120.99 65.34l.26-.044c.815-.148.852-.864.864-1.42l-8.454-51.405c-.14-.814-1.185-1.339-2.27-1.154-1.074.199-1.863 1.036-1.715 1.852l10.008 51.195c.13.34.426 1.13 1.308.976M168.23 192.628l-.234.135c-.715.402-.505 1.092-.327 1.624l25.762 45.474c.418.711 1.58.86 2.542.308.938-.53 1.382-1.59.968-2.314l-27.154-44.751c-.235-.273-.784-.91-1.556-.476M98.197 73.539l.235-.135c.716-.408.5-1.093.321-1.623L72.96 26.324c-.418-.71-1.585-.856-2.54-.308-.94.53-1.384 1.604-.964 2.313l27.18 44.736c.24.271.79.906 1.561.474M186.792 177.233l-.18.204c-.53.628-.092 1.203.26 1.634l40.003 34.054c.641.531 1.776.272 2.492-.561.697-.816.746-1.97.105-2.505l-41.052-32.9c-.32-.18-1.061-.594-1.628.074M79.631 88.923l.178-.204c.531-.63.087-1.196-.271-1.636L39.53 53.055c-.648-.532-1.79-.272-2.498.568-.698.82-.748 1.966-.106 2.498l41.077 32.875c.315.185 1.06.599 1.628-.073M198.885 156.519l-.098.253c-.272.764.333 1.153.814 1.45l49.406 18.517c.785.282 1.777-.344 2.153-1.366.37-1.005.024-2.11-.765-2.391l-50.004-17.08c-.364-.06-1.204-.205-1.506.617M67.525 109.637l.093-.26c.284-.765-.334-1.148-.815-1.444L17.391 89.447c-.79-.284-1.777.345-2.147 1.369-.376 1.007-.025 2.104.765 2.381l50.016 17.056c.359.062 1.198.199 1.5-.616M166.133 151.532c.142-.572-4.116-2.01-4.338-1.325-1.783 5.578-4.27 9.792-8.403 13.852-5.313 5.221-10.59 8.126-19.876 8.126-11.81 0-19.77-4.789-23.31-12.062-3.247-6.24-4.734-13.946-4.734-24.99 0-12.638 1.635-20.782 6.06-29.508 3.24-6.528 10.336-12.784 22.428-12.784 8.843 0 13.712 2.042 17.413 5.678 4.271 4.206 7.807 12.197 10.75 22.076.16.58 3.844.58 3.844 0-.143-7.554-.143-22.96.586-32.839 0-.864-3.684-1.16-3.98-.432-2.653 4.641-4.141 5.948-5.313 5.948-1.912 0-8.552-5.664-23.157-5.664-14.013 0-24.49 6.83-32.758 14.821-8.985 9.022-13.563 21.079-13.563 33.148 0 12.778 6.053 23.236 12.675 29.778 7.526 7.417 17.412 12.649 30.987 12.649 9.452 0 15.45-2.215 20.639-6.092l-.019.032s2.105-1.652 5.257-.913c2.136.494 2.654 1.309 5.314 5.954.289.728 3.98.439 3.98-.444-.728-9.865-.642-17.444-.482-25.009M548.344 164.516c-.224 5.299-.885 7.281-1.76 9.052-2.652 5.508-14.563 13.675-22.281 13.675-8.164 0-12.575-5.742-12.575-14.334 0-15.884 5.293-21.4 36.836-24.264 0 6.171 0 9.7-.22 15.871m35.287 7.948c-2.424 10.81-5.948 15.221-10.583 15.221-3.535 0-5.077-1.765-5.077-7.725 0-15 .66-31.982.66-43.23 0-11.026-1.759-17.647-7.276-23.163-5.954-5.955-14.994-9.927-29.334-9.927-13.457 0-22.941 4.861-29.11 10.587-3.091 2.653-5.294 6.836-5.294 11.477 0 6.615 5.294 11.47 12.13 11.47 6.614 0 11.242-4.633 11.242-10.81 0-7.497-6.613-8.38-6.613-10.144 0-1.327 5.739-5.51 15.22-5.51 7.276 0 12.57 1.975 15.21 4.627 3.098 3.086 3.982 7.491 3.982 18.302 0 4.412 0 6.393-.224 8.608-31.099 2.425-43.673 8.157-50.51 14.994-4.635 4.634-6.843 10.15-6.843 16.55 0 13.452 15.224 22.496 27.793 22.266 11.468 0 20.743-6.17 28.455-14.775 2.864 9.05 9.492 14.775 20.733 14.775 11.693 0 19.19-9.7 20.956-22.489 0-.883-4.852-1.77-5.517-1.104M665.35 103.861c-13.673 0-21.842 11.47-29.562 28.014l-.876-.211c0-9.712.216-17.881.439-22.503.22-2.437-.662-3.313-2.863-3.313-4.641 0-20.517.667-33.093.667-1.319 0-1.542 7.268-.219 7.268 11.03 0 13.677 0 14.555.889 1.11.881 2.214 5.96 2.214 18.973.215 11.027.215 34.19 0 41.908 0 6.837-.661 9.922-1.326 10.582-.655.666-2.21.666-16.328 1.101-.876 0-.655 7.065 0 7.065h56.47c1.322 0 1.098-7.277-.442-7.277-11.688-.446-16.106-.667-16.764-1.327-.663-.666-1.767-6.397-1.767-16.541v-15.224c0-6.836 1.55-13.012 5.739-21.39 5.517-11.027 12.353-19.635 20.288-19.635 2.876 0 4.198.876 4.198 1.765 0 1.325-5.297 4.627-5.297 11.476 0 6.615 5.073 10.367 11.472 10.367 7.059 0 13.45-6.183 13.45-15 0-9.93-7.713-17.654-20.289-17.654M743.497 187.68c-13.234-.444-14.332-.661-15.442-1.983-1.322-1.103-1.767-3.75-1.767-8.157.224-16.99.67-33.09.67-55.365 0-23.824 0-28.692.214-51.635 0-2.208-.884-3.75-2.864-3.75-12.792.222-20.739.222-33.3 0-1.777 0-1.556 6.18-.444 6.614 12.573.445 14.555.667 15.436 1.325.661.662.661 1.544.661 6.4.438 22.72.438 25.595.438 55.818 0 14.124-.438 34.854-.659 45 0 2.43-.216 3.306-.883 3.966-.877.888-2.42.888-14.549 1.106-.668 0-.89 6.842-.223 6.842 20.287 0 33.084 0 52.712.654.883 0 .44-6.835 0-6.835M779.464 121.508c2.876-5.727 9.27-11.02 17.648-11.02 13.648 0 22.256 9.959 25.124 25.384l-48.201 13.91c-.395-10.529 1.02-19.431 5.429-28.274m54.708 45.44c-6.836 15.437-16.55 21.399-29.556 21.399-12.797 0-21.177-4.628-25.59-13.682-2.405-4.645-4.015-9.83-4.595-17.025 0 0 52.077-15.412 65.19-19.353.868-.267 1.35-1.55.819-3.728-2.01-8.263-5.801-14.927-10.021-18.999-7.06-7.281-17.203-12.799-30.876-12.799-14.118 0-24.706 5.95-33.97 15.223-8.162 8.157-13.67 20.067-13.67 32.199 0 12.795 4.188 23.385 12.566 31.764 9.479 9.482 22.499 15.221 37.938 15.221 14.34 0 30.882-7.947 38.38-27.574.221-1.32-5.295-3.746-6.615-2.646M913.977 166.07c-3.529 14.112-9.261 20.287-15.881 20.287-4.413 0-7.713-2.208-9.27-5.293-1.534-2.863-1.98-6.837-1.98-24.039 0-16.323.446-36.393.883-42.353 3.306-.223 9.491-.223 26.471 0 1.764 0 1.988-8.819.445-8.604-2.208 0-18.746 0-27.353.224.216-6.399.66-25.804.876-31.543-.216-1.321-6.392-1.542-6.616-.221-2.425 12.575-7.496 23.828-11.47 27.79-2.863 2.653-6.177 3.314-18.085 4.19-.881 0-1.105 7.503.216 7.503 2.431 0 14.563 0 15.89.216-.439 18.092-.663 40.144-.663 56.026 0 8.83 2.203 13.896 5.956 17.648 5.51 5.508 12.79 7.94 21.172 7.94 12.127 0 22.501-9.484 26.248-28.012.444-1.32-6.393-2.869-6.839-1.758M1004.781 177.313c-4.418 8.822-10.15 12.131-20.961 12.131-16.32 0-26.688-10.368-26.688-38.379 0-10.59 1.323-18.746 4.636-25.584 4.19-8.157 11.253-15.438 23.823-15.438 11.91 0 17.426 4.406 21.17 11.902 2.216 4.635 3.314 12.36 3.314 22.067 0 17.196-1.994 26.907-5.294 33.301m-18.969-74.552c-13.895 0-27.58 5.518-36.613 14.779-10.156 9.7-15.008 19.635-15.008 33.97 0 12.567 4.636 21.835 12.353 29.56 9.047 9.04 22.72 16.098 37.06 16.098 13.23 0 25.373-5.076 34.63-14.339 8.155-8.164 14.993-19.19 14.993-31.98 0-12.138-4.63-25.145-14.334-34.857-8.158-8.157-19.19-13.23-33.081-13.23M1155.965 188.124c-9.928-.223-12.574-.444-13.673-1.55-.888-.877-1.992-3.967-1.992-20.289 0-12.566.221-21.398.221-31.097 0-21.183-9.928-32.427-28.006-32.427-16.766 0-26.692 15.002-33.307 27.132l-.888-.222c.221-5.295.888-17.424 1.097-20.948 0-1.542-.438-2.431-1.758-2.655-7.275 0-26.91.224-34.843.224-1.113 0-1.113 7.053-.224 7.053 10.584.222 13.45.222 14.556 1.327.884 1.104 1.764 6.403 1.764 19.188v34.406c0 15.667-.66 17.654-1.55 18.531-.874.883-3.747.883-14.102.883-1.112 0-1.112 6.835 0 7.057 9.032-.43 38.588-.43 49.832-.222 1.11.222 1.11-6.614.232-6.614-10.37-.438-12.352-.658-13.463-1.766-.882-.882-1.097-3.75-1.097-9.92-.223-9.267-.444-18.97-.444-24.04 0-7.503.659-11.034 3.312-15.89 4.19-8.817 13.236-21.169 25.59-21.169 9.031 0 13.007 5.959 13.007 16.98v44.994c0 5.295-.216 8.163-1.1 9.045-.889.884-5.072 1.328-10.149 1.545-.66 0-.884 6.398.437 6.627 9.491-.229 32.211-.229 46.327 0 1.321.208 1.321-6.183.221-6.183M470.824 155.673c.223-.881-6.132-3.065-6.473-2.01-2.676 8.458-6.391 14.85-12.556 21.01-7.959 7.927-15.846 12.346-29.742 12.346-17.646 0-29.554-7.28-34.849-18.308-4.85-9.476-7.059-21.17-7.059-37.935 0-19.19 2.431-31.543 9.046-44.779 4.849-9.926 15.437-19.405 33.524-19.405 13.234 0 20.516 3.085 26.03 8.595 6.394 6.398 11.688 18.529 16.1 33.536.223.876 5.738.876 5.738 0-.222-11.478-.222-34.856.877-49.856 0-1.322-5.51-1.766-5.955-.667-3.973 7.059-6.176 9.052-7.936 9.052-2.876 0-12.796-8.608-34.632-8.608-20.956 0-36.609 10.367-48.968 22.497-13.457 13.674-20.289 31.988-20.289 50.288 0 19.414 9.04 35.302 18.968 45.228 11.248 11.244 26.021 19.179 46.32 19.179 14.107 0 23.079-3.32 30.841-9.201l-.013.018s3.16-2.51 7.861-1.393c3.19.753 3.974 1.987 7.942 9.047.436 1.105 5.953.66 5.953-.668-1.096-14.992-.95-26.495-.728-37.966"/></g></svg>
