<svg data-name="Layer 1" xmlns="http://www.w3.org/2000/svg" viewBox="0 0 730.74 210.45"><path fill="#fff" d="M0 0h730v210H0z"/><ellipse cx="154.59" cy="164.01" rx="59.13" ry="46.45" fill="#fff"/><path d="M192.32 182.55s196.12-20.68 290.25-52.48c100.53-34 110-62.73 110-62.73l-50.77-4s34.81 12.41-65.73 46.38c-94.12 31.81-174.42 17.4-174.42 17.4l-54 32.32z" fill="#bbbdbf"/><path d="M146.29 135.66s138-81 233.54-100.72c106.82-22.06 166.94-4.33 166.94-4.33l-40.85 7.25S457 64.43 391.57 78.71c-72.39 15.8-141.17 25.13-141.17 25.13z" fill="#fff"/><path d="M237.06 90.52C224.9 96.76 208.47 108 208.47 108a.79.79 0 00-.06 1.26 1.24 1.24 0 001.47.34l14.61-6.82 17.82-13.18 8.13-6.23s-1.1.86-13.38 7.15z" fill="#fff"/><path d="M596.63 37.74s-98.08-27.59-212.57-3S99.06 164 99.06 164l3.71 11.4s177-108.81 290.63-132.6 200.9-2 200.9-2z" fill="#231f20"/><path d="M610.56 45.06S512.49 18.31 398 42.91 113 172.13 113 172.13l3.71 13.1S294.53 75.14 408.18 51.36s204.28-.68 204.28-.68z" fill="#3c4981"/><path d="M634.33 63.89s-92.58-27.59-207.07-3-285 130.49-285 130.49l5.4 15.21S322.48 95.29 435.75 69.77c132.84-29.92 183 5.91 183 5.91z" fill="#ffb607"/><path fill="#fff" d="M148.53 151.34l29.64 36.7 2.42-1.51 6.96-13.48-17.14 1.57-11.97-13.96 7.57-12.61-15.72 2.3-1.76.99z"/><path d="M625.31 54.06s-98.08-26.74-212.57-2.15-285 129.23-285 129.23l2 15.63S309.24 84 422.92 60.36C540 36.06 623 59.68 623 59.68z" fill="#c78812"/><path d="M192.32 182.55s148-91 248.87-112.34c109.44-23.15 151.39-2.87 151.39-2.87l-23.56 6S517 62.82 449.19 78.05C372.6 95.26 294.05 147.4 294.05 147.4z" fill="#524b48"/><path fill="#fff" d="M545.22 34.33l-12.52-7.81-4.73 2.26 17.25 5.55zM178.17 188.04l-42.3-52.38-40.37 15.95 7.27 56.45 57.89.23 17.51-20.25z"/><path fill="#fff" d="M609.92 74.69l-78.39-48.9 51.58-14.75 60.4 21.47 9.71 55.77-38.44 6.41-4.86-20z"/><path fill="#c78812" d="M167.12 174.36l5.16 6.39-30.02-1.79 11.28-21.41 4.62 5.71 11.51.14-2.55 10.96z"/><path fill="#231f20" d="M147.07 149.53l3.7 4.59-22.36-1.35 8.34-16.02 2.89 3.58 8.34.54-.91 8.66z"/><path fill="#ffb607" d="M595.86 65.92l4.7 2.93 10.21-7.61-41.44-11.87 6.59 4.13-3.59 3.59 23.53 8.83z"/><path fill="#fff" d="M573.91 52.23l-14.84-9.27-6.81 2.88 21.65 6.39z"/><path fill="#3c4981" d="M558.39 42.54l3.64 2.28 13.68-5.69-34.31-7.19 4.29 2.68-5.89 2.47 18.59 5.45z"/><path d="M730.74 143.82a294 294 0 00-72.38-8.82c-80.92 0-150.07 31.3-177.72 75.46h250.1z" fill="#231f20"/><path d="M658.36 131.11a289.16 289.16 0 0172.38 9V0h-131.2a51.59 51.59 0 0125.75 44.68c0 28.52-18.08 48.13-44.31 59.31-56.62 24.14-102.86 41.61-102.86 90.37a99 99 0 001.26 15.69c26.76-46.05 96.8-78.94 178.98-78.94z" fill="#c78812"/><path d="M603.15 123.42a6.28 6.28 0 01-3.63 1 7.44 7.44 0 01-3.25-.65c-.33-.17-.36-.28-.36-.92 0-1.19.11-2.14.14-2.53s.11-.37.22-.37.2.06.2.25a5.66 5.66 0 00.09.91c.33 1.65 1.88 2.33 3.49 2.33a3.17 3.17 0 003.36-3.09c0-1.49-.76-2.48-2.82-4.16l-1.07-.87c-2.54-2.08-3-3.71-3-5.34 0-2.56 2-4.3 5-4.3a9.87 9.87 0 012.28.25 3.07 3.07 0 00.85.11c.17 0 .23.06.23.17a24 24 0 00-.12 2.53c0 .4-.08.56-.2.56s-.19-.14-.22-.3a2.92 2.92 0 00-.34-1.21c-.2-.31-.73-1.18-2.93-1.18a2.65 2.65 0 00-2.79 2.69c0 1.18.73 2.22 2.87 3.91l.68.5c2.82 2.22 3.44 3.83 3.44 5.74a5 5 0 01-2.09 4zM624.81 109c0 .19-.09.3-.2.3s-.2-.08-.23-.42v-.33c-.11-.76-.62-1.27-2.91-1.3h-2.93v10c0 2.28 0 4.1.11 5.11.09.71.23 1.21.93 1.32a8.06 8.06 0 001.08.09.18.18 0 01.19.17c0 .14-.11.22-.39.22-1.3 0-2.94-.08-3.07-.08s-1.78.08-2.52.08c-.25 0-.39-.06-.39-.22a.18.18 0 01.19-.17 3.43 3.43 0 00.77-.12c.48-.08.62-.61.7-1.29.12-1 .12-2.83.12-5.11v-10h-3.47c-1.5 0-2.06.17-2.46.76a7.64 7.64 0 00-.42.79c-.11.17-.17.22-.28.22s-.15 0-.15-.19.51-2.47.57-2.67.11-.45.23-.45a9.42 9.42 0 001.12.28c.68 0 1.61.11 1.9.11h9.08a13.79 13.79 0 002.42-.22c.12 0 .12.14.12.28 0 .7-.06 2.55-.06 2.84zM633.25 117a1.32 1.32 0 01-1.36-1.39 1.36 1.36 0 011.39-1.39 1.3 1.3 0 011.4 1.31 1.4 1.4 0 01-1.43 1.47zM667 114.67c0 8.82-5.66 10.4-8.4 10.4-5.49 0-9.75-4.55-9.75-11.62 0-6.64 3.81-10 8.89-10 4.82 0 9.26 3.91 9.26 11.2zm2.93-.85c0-7.07-5.12-11.38-12-11.38a11.77 11.77 0 00-12 11.86c0 5.46 3.47 11.92 11.81 11.92 7.34 0 12.16-5.61 12.16-12.4zM685.22 123.5c-.16.53-.25.64-1.52.64-3.44 0-5.22-.16-6.63-.16-.2 0-1.74.08-2.48.08-.25 0-.36-.08-.36-.22a.15.15 0 01.17-.17 3.43 3.43 0 00.76-.12c.48-.08.62-.61.7-1.29.12-1 .12-2.83.12-5.11v-4.21c0-3.74 0-4.33-.06-5.12s-.22-1.18-1-1.34a3.75 3.75 0 00-.82-.09c-.11 0-.19 0-.19-.17s.11-.2.39-.2c1.07 0 2.68.09 2.79.09s2-.09 2.74-.09c.26 0 .39.06.39.2a.18.18 0 01-.19.17 4.42 4.42 0 00-.79.09c-.7.11-.9.53-.93 1.34s-.06 1.38-.06 5.12v4.24c0 3.51.09 5 .54 5.45s1 .53 2.88.53c1.27 0 2.31 0 2.87-.7a3.26 3.26 0 00.65-1.49c0-.17.08-.31.22-.31s.17.11.17.37a14.48 14.48 0 01-.34 2.47zM698.86 116.14c0 .08 0 .14-.09.14h-4.34c-.06 0-.12 0-.06-.14l2-6.07q.17-.51.33 0l2.13 6.07zm7.64 7.7c0-.12-.11-.17-.26-.17a3.75 3.75 0 01-1-.14c-.47-.17-1.18-.48-2.06-2.61-1.46-3.63-5.32-13.43-5.66-14.36-.31-.73-.43-.9-.57-.9s-.28.2-.56 1l-5.56 14.73c-.45 1.2-.9 2.1-2 2.24a4.94 4.94 0 00-.7.06.18.18 0 00-.2.17c0 .14.14.22.45.22 1.13 0 2.65-.08 2.93-.08s1.36.08 1.92.08c.23 0 .34-.08.34-.22s-.06-.17-.23-.17h-.25c-.37 0-.9-.2-.9-.67a4.65 4.65 0 01.34-1.6l1.35-3.94a.24.24 0 01.23-.19h5c.11 0 .13.05.19.13l2.12 5.6c.14.36 0 .56-.2.64a.21.21 0 00-.15.2c0 .14.26.17.74.17 1.67 0 3.86.08 4.23.08s.43-.08.43-.22zM720.08 107.23c0 .26-.08 1.32-.11 1.61 0 .14 0 .3-.22.3s-.2-.14-.2-.3a2.05 2.05 0 00-.26-.93 1.81 1.81 0 00-1.6-.73l-3.7-.06c-.14 0-.22.06-.22.25v6.32c0 .14 0 .23.17.23h4.17a1.44 1.44 0 001.1-.47c.08-.14.2-.26.28-.26a.18.18 0 01.17.2c0 .14-.14.65-.2 1.43-.05.48-.11 1.58-.11 1.74s0 .45-.19.45a.17.17 0 01-.18-.19 5 5 0 00-.16-.9 1.39 1.39 0 00-1.24-.87c-.6-.09-3.25-.06-3.64-.06-.12 0-.17 0-.17.2v2c0 2.31 0 4.1.11 5.11.09.71.22 1.21.93 1.32.34.06.87.09 1.1.12s.17.11.17.16-.12.23-.37.23c-1.32 0-3-.11-3.1-.11s-1.66.11-2.4.11c-.25 0-.36-.09-.36-.23s0-.16.19-.16a6.57 6.57 0 00.71-.09c.48-.11.62-.62.7-1.32.12-1 .12-2.83.12-5.14V113c0-3.74 0-4.36-.06-5.12s-.22-1.18-1-1.35a4.72 4.72 0 00-.83-.11c-.11 0-.19 0-.19-.14s.12-.23.39-.23c1.08 0 2.66.09 2.77.09h6a10.33 10.33 0 001.08-.08 1.1 1.1 0 01.36-.14.18.18 0 01.17.19c0 .17-.14.51-.2 1.18z" fill="#231f20"/><path d="M598.22 161.91a7.47 7.47 0 01-.13-10.76 8.33 8.33 0 016-2 18.05 18.05 0 012.75.19c.72.09 1.33.26 1.9.32.2 0 .28.11.28.23s-.06.37-.09 1 0 1.66-.06 2-.06.43-.23.43-.18-.14-.18-.41a2.72 2.72 0 00-.75-1.74 5.68 5.68 0 00-3.85-1.17 4.94 4.94 0 00-3.57 1.17 7 7 0 004.23 11.62c1.69 0 2.72-.18 3.48-1.05a3.11 3.11 0 00.64-1.25c.06-.3.1-.38.25-.38s.17.13.17.29a18 18 0 01-.42 2.51.65.65 0 01-.49.55 11.1 11.1 0 01-3.42.44 9.49 9.49 0 01-6.51-2.07zM624.94 163c-3.64 0-5.83-3.12-5.83-7.06 0-4.7 2.49-5.92 4.67-5.92 3.12 0 5.56 2.64 5.56 6.87 0 5.47-3.07 6.11-4.4 6.11zm-.8.95a7.49 7.49 0 007.86-7.76c0-4.33-2.94-7.07-7.67-7.07-5.69 0-7.84 4.18-7.84 7.41a7.22 7.22 0 007.65 7.42zM643 158.22c0 2.43 0 3.73.39 4.07s.82.42 2.3.42c1 0 1.75 0 2.22-.53a2.41 2.41 0 00.5-1.14c0-.17 0-.28.21-.28s.15.09.15.32a15 15 0 01-.29 2.17c-.11.42-.21.52-1.2.52-2.73 0-4-.12-5.52-.12-.44 0-1.63.06-2.39.06-.25 0-.38-.06-.38-.19s.08-.15.31-.15a2.94 2.94 0 00.68-.08c.38-.07.47-.49.55-1 .09-.79.09-2.29.09-4v-3.39-4c0-.59-.18-.95-.81-1.08a2.68 2.68 0 00-.63-.06c-.21 0-.32 0-.32-.17s.13-.17.42-.17c.89 0 2.08.06 2.6.06s1.84-.06 2.58-.06c.26 0 .4 0 .4.17s-.12.17-.34.17a4.71 4.71 0 00-.74.06c-.52.1-.67.42-.71 1.08s0 1.13 0 4v3.32zM659.56 158.22c0 2.43 0 3.73.4 4.07s.82.42 2.3.42c1 0 1.74 0 2.22-.53A2.39 2.39 0 00665 161c0-.17.06-.28.21-.28s.15.09.15.32a14.79 14.79 0 01-.28 2.17c-.12.42-.21.52-1.2.52-2.73 0-4-.12-5.53-.12-.43 0-1.63.06-2.39.06-.24 0-.38-.06-.38-.19s.08-.15.31-.15a3.12 3.12 0 00.69-.08c.37-.07.47-.49.54-1 .1-.79.1-2.29.1-4v-3.35-4c0-.59-.19-.95-.81-1.08a2.8 2.8 0 00-.63-.06c-.21 0-.33 0-.33-.17s.14-.17.42-.17c.89 0 2.09.06 2.6.06s1.85-.06 2.59-.06c.26 0 .4 0 .4.17s-.12.17-.35.17a4.81 4.81 0 00-.74.06c-.51.1-.66.42-.7 1.08s0 1.13 0 4v3.32zM673.87 154.9v-4c0-.59-.19-.95-.81-1.08a3.84 3.84 0 00-.75-.06c-.2 0-.32 0-.32-.17s.13-.17.42-.17c1 0 2.2.06 2.73.06h4.75l.81-.11a1.77 1.77 0 01.31-.08c.09 0 .11.08.11.17s-.09.36-.15 1.23c0 .19-.06 1-.09 1.25s-.06.21-.2.21-.17-.1-.17-.27a2.15 2.15 0 00-.11-.68c-.13-.34-.32-.56-1.28-.68-.31 0-2.31-.07-2.69-.07-.09 0-.13.05-.13.19v4.78c0 .13 0 .2.13.2h3c.4 0 .74-.09.91-.28s.21-.25.3-.25.14 0 .14.15a12.8 12.8 0 00-.16 1.38c0 .38-.07 1.14-.07 1.27s0 .36-.17.36a.15.15 0 01-.17-.17 4.88 4.88 0 00-.08-.69c-.09-.37-.36-.65-1.06-.73-.36 0-2.24-.06-2.7-.06-.1 0-.11.08-.11.19v4.43c0 1.3.34 1.59 2.28 1.59a4.75 4.75 0 001.78-.23c.5-.23.72-.63.86-1.4 0-.21.07-.28.2-.28s.16.15.16.33a15.28 15.28 0 01-.25 2.1c-.13.5-.3.5-1 .5-2.87 0-4.14-.12-5.26-.12-.44 0-1.64.06-2.39.06-.25 0-.39-.06-.39-.19s.08-.15.31-.15a2.94 2.94 0 00.68-.08c.38-.07.48-.49.55-1 .1-.79.1-2.29.1-4v-3.45zM703 162.44c0 .51 0 .55-.25.68a10.65 10.65 0 01-4.57.86c-4.65 0-8.77-2.2-8.77-7.42a7.08 7.08 0 013.3-6.18 9.18 9.18 0 015.1-1.23 22.44 22.44 0 013.37.3 11.78 11.78 0 001.5.21c.22 0 .26.09.26.23a26 26 0 00-.13 3.1c0 .3-.06.39-.21.39s-.17-.09-.19-.24a2.67 2.67 0 00-.64-1.57 6.09 6.09 0 00-4.23-1.47 5.45 5.45 0 00-3.76 1.17c-1.07.89-1.75 2.31-1.75 4.63 0 4.06 2.6 7.11 6.6 7.11a4.21 4.21 0 001.62-.21.68.68 0 00.36-.7v-1.78-2.23c0-.57-.19-.94-.82-1.08a4.72 4.72 0 00-.73 0c-.18 0-.29 0-.29-.16s.13-.18.4-.18c1 0 2.18.06 2.75.06s1.59-.06 2.22-.06c.24 0 .38 0 .38.18s-.11.16-.25.16a3.92 3.92 0 00-.51 0c-.51.1-.7.42-.72 1.08s0 1.33 0 2.27v2.08zM712.65 154.9v-4c0-.59-.19-.95-.81-1.08a3.67 3.67 0 00-.74-.06c-.21 0-.33 0-.33-.17s.14-.17.42-.17c1 0 2.2.06 2.73.06h4.75l.82-.11a1.67 1.67 0 01.3-.08c.1 0 .11.08.11.17s-.09.36-.15 1.23c0 .19-.05 1-.09 1.25s-.06.21-.19.21-.17-.1-.17-.27a1.94 1.94 0 00-.12-.68c-.13-.34-.32-.56-1.27-.68-.32 0-2.31-.07-2.69-.07-.1 0-.14.05-.14.19v4.78c0 .13 0 .2.14.2h3c.4 0 .74-.09.91-.28s.21-.25.31-.25.13 0 .13.15a11.66 11.66 0 00-.15 1.38c0 .38-.08 1.14-.08 1.27s0 .36-.17.36a.15.15 0 01-.17-.25 4.88 4.88 0 00-.08-.69c-.09-.37-.35-.65-1.06-.73-.36 0-2.24-.06-2.69-.06-.1 0-.12.08-.12.19v4.43c0 1.3.34 1.59 2.28 1.59a4.75 4.75 0 001.78-.23c.5-.23.73-.63.86-1.4 0-.21.07-.28.21-.28s.15.15.15.33a13.87 13.87 0 01-.25 2.1c-.13.5-.3.5-1 .5-2.87 0-4.14-.12-5.26-.12-.44 0-1.63.06-2.39.06-.25 0-.38-.06-.38-.19s.07-.15.31-.15a2.85 2.85 0 00.67-.08c.39-.07.48-.49.55-1 .1-.79.1-2.29.1-4v-3.37z" fill="#c78812"/><path d="M0 0v210.45h131.2a51.59 51.59 0 01-25.75-44.68c0-28.51 18.08-48.13 44.31-59.31 56.62-24.13 105.36-41.6 105.36-90.37A99.25 99.25 0 00253.81 0z" fill="#3c4981"/><path d="M246.33 0h-9.77a105.24 105.24 0 011.23 16.09c0 38.79-28.74 57.78-67 76.07 44-18.29 77-37.28 77-76.07A92 92 0 00246.33 0zM25 49.42c0-.14 0-.62.41-.62a.46.46 0 01.46.48c-.05.72-.08 1.45-.08 2.21 0 .93.05 1.88.12 2.85 0 .22 0 .53-.38.53s-.41-.24-.41-.74c-.26-3-3.63-4.42-6-4.42a4.66 4.66 0 00-3.84 2.12 7.91 7.91 0 00-1 4.22c0 4.17 1.78 8.32 5.74 8.32a6.24 6.24 0 006-5.46c.05-.22.15-.31.36-.31.39 0 .41.4.41.66 0 .62-.41 3.59-.46 4.26-.07.14-.09.19-.14.19s-.54-.31-.66-.31a.7.7 0 00-.43.17 9.52 9.52 0 01-5.41 1.76c-5.18 0-8-3.88-8-8.42 0-2 .78-6.18 5-7.7a8.24 8.24 0 012.68-.46A9.29 9.29 0 0125 50.68zM34 60.33c.15 0 .81-.14 1-.17 0 2.53 0 2.67-.2 3a2.09 2.09 0 01-1.61.9 1.66 1.66 0 01-1.55-1.64c0-1.33 1.02-1.76 2.36-2.09zm3.18-.47a19 19 0 00-.09-2.57c-.31-1.9-2.66-2.16-3.49-2.16-2 0-4 1.35-4 2 0 .26.46 1.33 1.24 1.33.26 0 .43-.33.5-.47.28-.84.74-2.1 2.16-2.1 1.24 0 1.47 1 1.47 2.07 0 1.41 0 1.46-.19 1.53s-1.16.33-1.21.33c-2.07.4-4.06.87-4.06 3.25a2.08 2.08 0 002.3 2.28 4 4 0 003.35-2 2.33 2.33 0 002.25 1.82 2.22 2.22 0 002.19-1.49.35.35 0 00-.33-.36 2.29 2.29 0 00-.55.31 1.12 1.12 0 01-.47.09c-1 0-1.1-1.26-1.1-1.93zM45.89 62.36c0 2.09.73 2.09 2.49 2.09.19 0 .24.26.24.27s-.09.5-.36.5-.83-.07-1.16-.06H42.16c-.17 0-.17-.33-.17-.38v-.17c0-.03.19-.19.28-.19a2.12 2.12 0 00.43 0c1 0 1.09-.38 1.09-3.28V58.5c-.1-.76-.14-1.12-.5-1.21s-1.55-.31-1.55-.57.22-.26.55-.41l1.21-.5c.36-.14 2-1 2.16-1a.09.09 0 01.1 0c.11 0 .16.16.16.24v3c1-2.11 2.64-3.11 4-3.11.52 0 1.9.24 1.9.95 0 .17-.34 1.71-.88 1.71a1.64 1.64 0 01-.55-.16 3.36 3.36 0 00-1.7-.44 2.73 2.73 0 00-2.23 1.18 3.75 3.75 0 00-.57 2.5zM56.21 52.4c0-1.07-.12-1.95-1.19-2.14-.57-.07-.88-.12-.88-.53a.3.3 0 01.1-.26s2.18-.76 2.58-.93l1.18-.47a2.23 2.23 0 01.2-.07.23.23 0 01.21.22c0 .43-.09 2.41-.09 2.86v11.18c0 1.33.14 2.13.93 2.13h.9c.24 0 .24.09.24.45s-.19.33-.93.31H56.28c-.66 0-1.33.07-1.59.07s-.31-.3-.31-.56.29-.23.48-.23c1.26 0 1.42-.55 1.4-4.86zM67.56 59a23.39 23.39 0 01-3.25 1.09c-.16-1.95.62-3.88 2.06-3.88a2.78 2.78 0 012.57 1.64c0 .52-1.09.99-1.38 1.15zm0 .69a30.65 30.65 0 003.54-1.39c.24-.17.36-.24.36-.48 0-.67-2.26-2.69-4.33-2.69-2.6 0-4.69 2.64-4.69 5.59 0 1.65.69 4.78 4.72 4.78 3.75 0 5-2.73 5-2.92a.24.24 0 00-.21-.24.84.84 0 00-.34.19 4.24 4.24 0 01-3.21 1.26c-3.56 0-4-2.45-4-3.16zM82 55.32c.24 0 .52 0 .52.29a.37.37 0 010 .16l-.28.75c0 .12-.17.2-.21.15l-3.5-.05c0 .36-.21 2.27-.24 2.73v1.72c0 2.15 0 2.92 1.14 2.92a4.72 4.72 0 002.09-.72 3.77 3.77 0 01.79-.55c.16 0 .26.05.26.24a4.67 4.67 0 01-4 2.4 2.43 2.43 0 01-2.25-1.8 7.26 7.26 0 01-.32-1.77c0-.82.09-2 .16-2.73l.14-1.46c0-.62 0-.91-.45-.91h-1.3c-.07 0-.19-.09-.19-.19s0-.23.19-.33l.85-.61a11.1 11.1 0 002.88-3.16.37.37 0 01.26-.19.41.41 0 01.26.1.9.9 0 010 .21c-.07.29-.14.57-.19.85-.12.67-.21 1.34-.26 2zM94 61.36c-.37 2.64-2 3.29-3.25 3.29-2 0-3.6-1.79-3.6-5A3.32 3.32 0 0190.61 56c2.45 0 3.48 2.05 3.48 4.5 0 .27-.03.7-.09.86zM87.46 56a5.38 5.38 0 00-2.59 4.52c0 2.93 2.5 5 5.71 5s5.87-2.26 5.87-5.35-2.6-5.07-5.44-5.07a7.61 7.61 0 00-3.55.9zM101.14 58.66c0-1.14-.31-1.24-1.8-1.73a.34.34 0 01-.14-.34c0-.14.09-.19 1.54-.78a17.84 17.84 0 012-.9c.35 0 .35.29.35.64v1.91c1.47-1.59 2.82-2.33 4.34-2.33a3.84 3.84 0 013.25 1.57c.43.66.64 1.26.64 3.51v2.17c0 1 0 1.95.71 1.95l1 .07c.16.07.23.16.23.4s-.23.38-.69.38c-.76 0-1.54-.07-2.32-.07s-1.8 0-2.75.09c-.21 0-.28-.24-.28-.35 0-.4.19-.43 1-.48s.9-.12.9-3a13.17 13.17 0 00-.17-2.92 2.66 2.66 0 00-2.7-2 4.36 4.36 0 00-3 1.54v4.63c0 .76.12 1.66.86 1.66l.76.08c.12.07.26.21.26.33a.41.41 0 01-.38.45h-3.06l-2.17.07c-.28 0-.3-.26-.3-.42a.59.59 0 010-.28c.14 0 .9-.11 1.07-.16.83-.22.83-1 .83-1.79zM135.27 49.42c0-.14 0-.62.41-.62a.46.46 0 01.45.48c0 .72-.07 1.45-.07 2.21 0 .93.05 1.88.12 2.85 0 .22 0 .53-.38.53s-.41-.24-.41-.74c-.26-3-3.63-4.42-6-4.42a4.69 4.69 0 00-3.85 2.12 8 8 0 00-1 4.22c0 4.17 1.78 8.32 5.74 8.32a6.25 6.25 0 006-5.46c0-.22.14-.31.36-.31.38 0 .4.4.4.66 0 .62-.4 3.59-.45 4.26-.07.14-.09.19-.14.19s-.55-.31-.67-.31a.72.72 0 00-.43.17 9.52 9.52 0 01-5.35 1.76c-5.17 0-8-3.88-8-8.42 0-2 .79-6.18 5-7.7a8.2 8.2 0 012.68-.46 9.29 9.29 0 015.6 1.93zM148.81 61.36c-.4 2.62-2.05 3.29-3.29 3.29-2.05 0-3.6-1.79-3.6-5a3.32 3.32 0 013.46-3.65c2.45 0 3.48 2.05 3.48 4.5 0 .27-.03.7-.05.86zM142.23 56a5.38 5.38 0 00-2.59 4.52c0 2.93 2.5 5 5.71 5s5.87-2.26 5.87-5.35-2.6-5.07-5.44-5.07a7.61 7.61 0 00-3.55.9zM155.89 52.4c0-1.07-.12-1.95-1.19-2.14-.57-.07-.88-.12-.88-.53a.34.34 0 01.09-.26c.05 0 2.19-.76 2.59-.93l1.14-.47s.19-.08.24-.08a.23.23 0 01.21.22c0 .43-.09 2.41-.09 2.86v11.19c0 1.33.15 2.13.93 2.13h.9c.24 0 .24.09.24.45s-.19.33-.93.31H155.96c-.66 0-1.33.07-1.59.07s-.31-.3-.31-.56.29-.23.48-.23c1.26 0 1.42-.55 1.4-4.86zM164.49 52.4c0-1.07-.12-1.95-1.19-2.14-.57-.07-.88-.12-.88-.53a.3.3 0 01.1-.26s2.18-.76 2.58-.93l1.14-.47s.19-.08.24-.08a.23.23 0 01.21.22c0 .43-.09 2.41-.09 2.86v11.19c0 1.33.15 2.13.93 2.13h.9c.24 0 .24.09.24.45s-.19.33-.92.31h-3.19c-.66 0-1.32.07-1.59.07s-.3-.3-.3-.56.28-.23.47-.23c1.26 0 1.42-.55 1.4-4.86zM175.84 59a23.3 23.3 0 01-3.24 1.09c-.17-1.95.61-3.88 2.06-3.88a2.76 2.76 0 012.56 1.64c0 .52-1.09.99-1.38 1.15zm0 .69a31.62 31.62 0 003.55-1.38c.23-.17.35-.24.35-.48 0-.67-2.26-2.69-4.32-2.69-2.61 0-4.7 2.64-4.7 5.59 0 1.65.69 4.78 4.72 4.78 3.76 0 5-2.73 5-2.92a.23.23 0 00-.21-.24.8.8 0 00-.33.19 4.27 4.27 0 01-3.22 1.26c-3.55 0-4-2.45-4-3.16z" fill="#ffb607"/><path d="M188.71 57.79a3.47 3.47 0 01.14 1c0 2-1.31 2.31-1.88 2.31-1.39 0-2-1.41-2-2.69s.45-2.4 1.93-2.4c1.28-.01 1.62 1.13 1.81 1.78zm-1.67 6h-1.07c-.57 0-1.36-.26-1.36-.94s.72-1 1-1 1.05.14 1.26.14a3.58 3.58 0 003.61-3.54 2.89 2.89 0 00-.5-1.51h.05a2.45 2.45 0 001.44.45c1.65 0 1.72-1.16 1.72-1.4a.94.94 0 00-.86-1c-.33 0-.43.12-.74.52a1.92 1.92 0 01-1.33.83 1 1 0 01-.66-.21 5.13 5.13 0 00-2.78-.92 3.72 3.72 0 00-1.71.41 3.32 3.32 0 00-2 3.13 3 3 0 002.05 2.85 2.33 2.33 0 00-1.78 2 1.33 1.33 0 00.91 1.28 2.33 2.33 0 00-1.73 2.24c0 2.76 3.91 3.16 5 3.16 2.73 0 5.37-1.54 5.37-3.88a2.93 2.93 0 00-3.3-2.75zm1.67 2c1.49.12 1.7.15 2 .7a1.23 1.23 0 01.17.64c0 1.27-1.8 2-3.43 2-2.64 0-3.67-1.79-3.67-2.62a1.23 1.23 0 011.1-1.28 10.29 10.29 0 002.19.46c.2 0 1.37.07 1.64.09zM200.27 59a23.39 23.39 0 01-3.27 1.08c-.16-1.95.62-3.88 2.06-3.88a2.78 2.78 0 012.57 1.64c.02.53-1.07 1-1.36 1.16zm0 .69a30.65 30.65 0 003.54-1.38c.24-.17.36-.24.36-.48 0-.67-2.26-2.69-4.33-2.69-2.6 0-4.69 2.64-4.69 5.59 0 1.65.69 4.78 4.72 4.78 3.75 0 5-2.73 5-2.92a.24.24 0 00-.21-.24.78.78 0 00-.34.19 4.24 4.24 0 01-3.21 1.26c-3.56 0-4-2.45-4-3.16zM109.4 210.45a69.58 69.58 0 0124-100.94 72.88 72.88 0 00-44 66.81 72.1 72.1 0 008.54 34.13z" fill="#ffb607"/></svg>